<svg xmlns="http://www.w3.org/2000/svg" width="22.667" height="17" viewBox="0 0 22.667 17">
    <defs><style>.a{fill:#185997;}</style></defs>
    <path class="a" d="M20.542,64H2.125A2.125,2.125,0,0,0,0,66.125v12.75A2.125,2.125,0,0,0,2.125,81H20.542a2.125,2.125,0,0,0,2.125-2.125V66.125A2.125,2.125,0,0,0,20.542,64Zm0,2.125v1.806c-.993.808-2.575,2.065-5.958,4.714-.746.586-2.222,2-3.25,1.979-1.027.017-2.5-1.393-3.25-1.979C4.7,70,3.118,68.74,2.125,67.931V66.125ZM2.125,78.875V70.658c1.014.808,2.453,1.942,4.646,3.659.968.762,2.662,2.443,4.563,2.433,1.891.01,3.564-1.647,4.562-2.433,2.193-1.717,3.632-2.851,4.646-3.659v8.217Z" transform="translate(0 -64)"/>
</svg>