<svg xmlns="http://www.w3.org/2000/svg" width="90.815" height="19.578" viewBox="0 0 90.815 19.578"><defs><style>.a{fill:#0071b8;}.b{fill:#828282;}</style></defs><g transform="translate(-637.542 -389.619)"><path class="a" d="M770.082,409.473h7.69s1.937.173,4.65-3.219c1.921-2.4,2.325-3.04,4.113-3.04h8.4v-3.577h-9.657s-1.729-.289-4.024,2.593c-1.761,2.211-2.563,3.571-5.365,3.576-2.325,0-6.08,0-6.08,0Z" transform="translate(-66.583 -5.039)"/><path class="b" d="M655.961,410.976a5.155,5.155,0,0,0,2.5-4.649c0-3.4-3.4-4.292-4.828-4.292H637.542V404.9h3.04v10.372h3.577V404.9h3.04v10.372h3.4v-3.934h1.565l2.906,3.934h3.755Zm-2.593-2.325H650.6v-3.577h3.04a1.881,1.881,0,0,1,1.52,1.878C655.157,408.562,653.368,408.652,653.368,408.652Z" transform="translate(0 -6.25)"/><path class="b" d="M691.841,415.268l3.309-.089-4.65-13.144h-4.918l-4.649,13.144,3.308.089.82-2.325h5.959Zm-5.77-5.186,1.389-3.934h1.162l1.389,3.934Z" transform="translate(-21.842 -6.25)"/><path class="b" d="M717.551,410.2a3.8,3.8,0,1,1-.143-3.958l2.443-1.813a6.839,6.839,0,1,0,.034,7.771Z" transform="translate(-35.164 -5.978)"/><path class="b" d="M733.414,411.422v3.04a14,14,0,0,0,3.934.894,4.273,4.273,0,0,0,4.292-4.113c0-2.861-3.308-4.024-4.024-4.381s-1.609-.536-1.431-1.431,2.682-1.43,4.828,0V402.57a5.819,5.819,0,0,0-3.04-.715c-1.967,0-4.829,1.073-4.829,3.755s3.04,3.577,3.934,4.113,1.61.716,1.61,1.61-1.788,1.431-2.682,1.252A7.875,7.875,0,0,1,733.414,411.422Z" transform="translate(-48.124 -6.159)"/><path class="b" d="M776.439,400.077s-1.52-.268-3.13,2.057-3.4,4.113-5.723,4.113h-5.33l-2.655-7.505h6.107s1.937.144,4.113-2.861c1.8-2.492,2.682-3.219,4.471-3.219h3.934v-3.04h-6.08s-1.639-.154-3.487,2.235c-1.73,2.237-2.921,3.929-5.723,3.934-1.248,0-3.013,0-4.379,0l0-.007h-4.918l-4.65,13.144,3.309.089.82-2.325h5.959l.821,2.325.09,0v0h9.656a6.933,6.933,0,0,0,4.829-2.682c1.788-2.5,2.682-3.4,4.471-3.4h2.325v-2.861Zm-22.311,3.755,1.388-3.934h1.163l1.388,3.934Z" transform="translate(-56.1)"/></g></svg>